HIERARCHY
ROOT Hips
{
 OFFSET 0.000000 0.000000 0.000000
 CHANNELS 6 Xposition Yposition Zposition Yrotation Xrotation Zrotation
 JOINT Chest
 {
  OFFSET 0.000000 9.585900 0.002600
  CHANNELS 3 Yrotation Xrotation Zrotation
  JOINT Chest2
  {
   OFFSET 0.000000 9.601200 -0.005300
   CHANNELS 3 Yrotation Xrotation Zrotation
   JOINT Chest3
   {
    OFFSET 0.000000 9.561800 0.000000
    CHANNELS 3 Yrotation Xrotation Zrotation
    JOINT Chest4
    {
     OFFSET 0.000000 9.552100 0.000000
     CHANNELS 3 Yrotation Xrotation Zrotation
     JOINT Neck
     {
      OFFSET 0.000000 14.453000 0.000000
      CHANNELS 3 Yrotation Xrotation Zrotation
      JOINT Head
      {
       OFFSET 0.000000 8.936500 -0.011300
       CHANNELS 3 Yrotation Xrotation Zrotation
       End Site
       {
        OFFSET 0.000000 17.073600 -0.006000
       }
      }
     }
     JOINT RightCollar
     {
      OFFSET -2.921100 9.558500 0.000000
      CHANNELS 3 Yrotation Xrotation Zrotation
      JOINT RightShoulder
      {
       OFFSET -13.519700 0.000000 0.000000
       CHANNELS 3 Yrotation Xrotation Zrotation
       JOINT RightElbow
       {
        OFFSET 0.000000 -29.696600 0.000000
        CHANNELS 3 Yrotation Xrotation Zrotation
        JOINT RightWrist
        {
         OFFSET 0.000000 -24.004700 0.000000
         CHANNELS 3 Yrotation Xrotation Zrotation
         End Site
         {
          OFFSET 0.000000 -17.728500 0.000000
         }
        }
       }
      }
     }
     JOINT LeftCollar
     {
      OFFSET 2.921100 9.558500 0.000000
      CHANNELS 3 Yrotation Xrotation Zrotation
      JOINT LeftShoulder
      {
       OFFSET 13.519700 0.000000 0.000000
       CHANNELS 3 Yrotation Xrotation Zrotation
       JOINT LeftElbow
       {
        OFFSET 0.000000 -29.696600 0.000000
        CHANNELS 3 Yrotation Xrotation Zrotation
        JOINT LeftWrist
        {
         OFFSET 0.000000 -24.004700 0.000000
         CHANNELS 3 Yrotation Xrotation Zrotation
         End Site
         {
          OFFSET 0.000000 -17.728500 0.000000
         }
        }
       }
      }
     }
    }
   }
  }
 }
 JOINT RightHip
 {
  OFFSET -7.771700 -0.012900 -0.001300
  CHANNELS 3 Yrotation Xrotation Zrotation
  JOINT RightKnee
  {
   OFFSET 0.000000 -40.869800 0.001200
   CHANNELS 3 Yrotation Xrotation Zrotation
   JOINT RightAnkle
   {
    OFFSET 0.000000 -39.717900 0.002100
    CHANNELS 3 Yrotation Xrotation Zrotation
    JOINT RightToe
    {
     OFFSET 0.000000 -4.965400 11.033500
     CHANNELS 3 Yrotation Xrotation Zrotation
     End Site
     {
      OFFSET 0.000000 -1.423100 5.872300
     }
    }
   }
  }
 }
 JOINT LeftHip
 {
  OFFSET 7.771700 -0.012900 -0.001300
  CHANNELS 3 Yrotation Xrotation Zrotation
  JOINT LeftKnee
  {
   OFFSET 0.000000 -40.869800 0.001200
   CHANNELS 3 Yrotation Xrotation Zrotation
   JOINT LeftAnkle
   {
    OFFSET 0.000000 -39.717900 0.002100
    CHANNELS 3 Yrotation Xrotation Zrotation
    JOINT LeftToe
    {
     OFFSET 0.000000 -4.965400 11.033500
     CHANNELS 3 Yrotation Xrotation Zrotation
     End Site
     {
      OFFSET 0.000000 -1.423100 5.872300
     }
    }
   }
  }
 }
}
MOTION
Frames: 6
Frame Time: 0.008333
-28.669627 55.214621 5.587292 -176.898844 -17.876207 -1.524479 -0.102387 16.527237 0.625961 -0.011515 1.683085 0.078819 -0.024753 2.796248 0.132603 -0.045057 14.619705 0.690291 2.360856 10.563705 7.340027 0.832401 -14.541535 7.530948 1.867809 1.373131 1.414627 2.149955 -5.792680 -8.059765 -101.643194 -66.305162 130.455694 -12.830058 -12.925466 2.321804 -4.894893 -0.869309 2.121447 3.670462 -11.176861 6.311054 65.923502 -53.188166 -107.474402 9.158071 -10.969135 7.525111 -0.618275 -57.190743 10.588557 -95.251126 88.227626 -100.419316 -11.010769 -22.979377 14.265179 0.014735 -0.054997 0.023799 10.108117 -53.543060 -6.571883 109.926692 77.198631 106.556229 -8.451644 -24.114122 2.629769 0.023155 0.156960 0.016268
-28.670011 55.214526 5.587323 -176.894045 -17.869086 -1.530554 -0.100530 16.531448 0.631200 -0.013873 1.678042 0.079518 -0.021977 2.804261 0.132441 -0.043074 14.624113 0.692074 2.356974 10.567964 7.334562 0.821562 -14.532203 7.532477 1.862559 1.351716 1.405423 2.147196 -5.792298 -8.054452 -101.565800 -66.289903 130.388207 -12.824306 -12.925481 2.325597 -4.908766 -0.893890 2.147023 3.670546 -11.172675 6.296741 65.919705 -53.184553 -107.486580 9.156105 -10.970308 7.523876 -0.633685 -57.194380 10.598789 -95.141261 88.230787 -100.315228 -11.006636 -22.977517 14.271630 0.013652 -0.053811 0.018077 10.096144 -53.555350 -6.558678 109.945099 77.196812 106.567219 -8.457966 -24.108658 2.633475 0.023601 0.152986 0.016758
-28.670302 55.214473 5.587164 -176.888394 -17.863585 -1.538505 -0.095060 16.533698 0.637364 -0.013123 1.679180 0.079575 -0.010650 2.812431 0.128824 -0.033285 14.627748 0.695033 2.334345 10.567709 7.338565 0.808726 -14.520618 7.534757 1.840882 1.320919 1.403772 2.137931 -5.790688 -8.054050 -101.479060 -66.266714 130.309933 -12.852973 -12.909180 2.337852 -4.940485 -0.921331 2.183326 3.650555 -11.186902 6.289601 65.913482 -53.180914 -107.511152 9.157884 -10.971528 7.557118 -0.657635 -57.197094 10.622142 -95.023483 88.221884 -100.198060 -11.047698 -22.964948 14.276892 0.011940 -0.047516 0.016254 10.077704 -53.570084 -6.540479 109.991814 77.196529 106.603522 -8.459271 -24.098225 2.640415 0.021975 0.142809 0.015366
-28.671722 55.214477 5.586646 -176.890904 -17.861132 -1.538155 -0.079490 16.538851 0.636477 -0.009148 1.681852 0.079006 -0.018324 2.807550 0.132675 -0.023781 14.631840 0.694277 2.319193 10.577761 7.338832 0.803579 -14.524169 7.538626 1.821347 1.301885 1.402137 2.131297 -5.784837 -8.057424 -101.410951 -66.244454 130.254528 -12.882238 -12.898248 2.350982 -4.964674 -0.935411 2.216070 3.636232 -11.204833 6.279482 65.906618 -53.167445 -107.489883 9.159867 -10.972096 7.564085 -0.658073 -57.197940 10.624793 -94.926173 88.216990 -100.099604 -11.071787 -22.958178 14.281576 -0.018263 -0.045975 0.012801 10.080869 -53.573570 -6.540922 109.998936 77.196760 106.609893 -8.462082 -24.096588 2.643035 0.025305 0.141136 0.014505
-28.673178 55.214577 5.585688 -176.887287 -17.861261 -1.540186 -0.077337 16.541206 0.637454 -0.011319 1.682792 0.079903 -0.017549 2.808086 0.132774 -0.019501 14.633002 0.695371 2.311268 10.582721 7.336969 0.798181 -14.517237 7.537122 1.794827 1.276618 1.382750 2.139801 -5.771105 -8.053599 -101.345502 -66.221735 130.197595 -12.892481 -12.888458 2.360062 -4.978604 -0.945837 2.242605 3.622473 -11.222894 6.270195 65.897270 -53.153147 -107.469793 9.161467 -10.963076 7.542181 -0.665264 -57.195570 10.633513 -94.795647 88.203399 -99.963062 -11.128070 -22.947835 14.290976 0.018696 -0.039818 0.017105 10.077739 -53.573637 -6.540368 110.000884 77.196505 106.611512 -8.465040 -24.097068 2.645189 0.020468 0.142421 0.013556
-28.674849 55.214583 5.584858 -176.889360 -17.860439 -1.539432 -0.075075 16.545350 0.636517 -0.010834 1.680332 0.079549 -0.016912 2.807795 0.132828 -0.017901 14.632106 0.697096 2.307258 10.590708 7.334319 0.785950 -14.493291 7.530605 1.781660 1.265769 1.370570 2.142217 -5.770393 -8.058863 -101.297481 -66.203049 130.154797 -12.895363 -12.872801 2.366124 -4.983062 -0.956249 2.263554 3.611417 -11.233252 6.261978 65.901058 -53.147675 -107.486156 9.157631 -10.956690 7.538162 -0.673945 -57.194286 10.633360 -94.749458 88.198996 -99.923635 -11.099292 -22.944177 14.285302 0.008930 -0.046696 0.016982 10.081142 -53.574536 -6.541076 110.002094 77.197923 106.611707 -8.465910 -24.096276 2.647640 0.024743 0.142309 0.012697
